<svg width="96" height="30" viewBox="0 0 96 30" fill="none" xmlns="http://www.w3.org/2000/svg">
<g clip-path="url(#clip0_4336_8177)">
<path d="M19.465 20.4294C18.355 21.9294 14.235 19.7194 13.765 18.2594C16.065 17.1794 15.305 15.2594 14.235 15.1794C12.775 15.0494 10.685 17.4494 10.375 21.1794C10.115 24.3894 12.175 25.9294 14.825 25.8094C17.435 25.6394 20.225 24.3994 22.065 20.6694C22.325 20.0694 24.125 21.3094 23.905 21.6494C20.435 28.2894 15.725 29.8694 11.015 29.6994C6.48499 29.5194 3.19499 26.0094 3.27499 21.5594C3.40499 15.9494 8.07499 11.0694 14.925 11.1494C21.135 11.2394 22.805 16.0994 19.465 20.4294Z" fill="#0994F2"/>
<path d="M21.215 24.0397C21.715 21.8597 22.305 19.6997 22.905 17.5497C23.455 15.5897 23.495 11.4097 25.935 11.0197C26.495 10.9297 31.725 11.0697 31.365 12.2997C29.955 17.2297 28.625 21.0797 28.195 23.3897C27.935 25.0197 28.155 25.8697 28.705 25.8697C30.205 25.9097 32.775 23.8597 34.235 20.7297C34.495 20.1297 36.295 21.3697 36.075 21.7597C34.105 25.4397 30.805 29.5497 25.925 29.7697C21.345 29.9797 20.405 27.4997 21.215 24.0297V24.0397ZM26.275 5.27966C26.705 3.26966 28.335 1.67966 30.605 1.72966C32.835 1.76966 33.985 3.35966 33.645 5.27966C33.305 7.24966 31.715 8.83966 29.195 8.83966C27.225 8.83966 25.895 7.16966 26.285 5.27966" fill="#0994F2"/>
<path d="M51.225 16.8495C50.795 18.6095 49.855 21.1795 49.425 23.1495C49.085 24.7295 49.295 25.8895 50.065 25.8895C51.645 25.8895 53.795 23.4895 55.115 20.7495C55.415 20.1495 57.175 21.3495 56.955 21.7795C55.245 25.0295 51.905 29.6995 47.065 29.8295C42.655 29.9595 41.665 27.5195 42.525 24.1295C42.865 22.7995 43.935 18.4295 44.115 17.6595C44.375 16.4995 44.375 15.7795 43.175 15.9495C42.275 16.0795 41.245 16.7195 40.135 17.6195C38.895 21.6495 38.165 25.1595 37.175 29.0995C36.445 30.1295 30.795 30.3395 30.275 28.8395C31.415 23.8295 32.865 18.8895 34.375 13.9795C34.635 13.1295 34.765 11.7595 35.515 11.2695C36.025 10.9295 36.985 10.9495 37.575 10.9395C37.955 10.9395 41.915 11.3195 41.585 12.2195C41.325 12.9095 41.155 13.6795 40.905 14.3595C42.445 13.1595 45.185 11.1095 47.755 11.1495C51.095 11.1895 52.035 13.4595 51.225 16.8495" fill="#0994F2"/>
<path d="M69.225 20.5095C68.115 22.0095 63.995 19.7995 63.525 18.3395C65.825 17.2595 65.065 15.3395 63.995 15.2595C62.535 15.1295 60.445 17.5295 60.145 21.2595C59.885 24.4695 61.945 26.0095 64.595 25.8895C67.205 25.7195 69.995 24.4795 71.835 20.7495C72.095 20.1495 73.895 21.3895 73.675 21.7295C70.205 28.3695 65.495 29.9495 60.785 29.7795C56.245 29.6095 52.945 26.0995 53.035 21.6395C53.165 16.0295 57.835 11.1495 64.685 11.2295C70.895 11.3195 72.565 16.1795 69.225 20.5095" fill="#0994F2"/>
<path d="M84.475 1.51079C83.665 3.95079 82.125 8.88078 80.795 13.9708C82.375 12.7708 84.995 11.1408 87.395 11.1408C91.165 11.1408 91.975 13.4908 90.945 16.8408C90.085 19.6208 87.335 25.0408 89.605 25.8608C90.355 26.1308 90.955 26.1808 92.095 25.1808C92.465 24.8508 92.915 25.1308 92.665 25.5608C91.435 28.2408 89.345 29.7808 86.545 29.8108C82.165 29.8608 81.495 27.5808 81.835 25.0108C82.135 22.8308 83.545 18.4108 83.805 17.6408C84.185 16.5308 84.105 15.6708 82.905 15.8008C82.095 15.8908 80.805 16.6108 79.735 17.6008C78.575 21.9308 77.555 25.7808 76.735 29.1208C76.525 30.0608 69.115 30.6208 69.625 28.6908C72.025 19.6508 75.625 7.23079 77.675 0.470785C79.175 -0.559215 84.575 0.170785 84.485 1.50079" fill="#0994F2"/>
</g>
<defs>
<clipPath id="clip0_4336_8177">
<rect width="89.45" height="30" fill="white" transform="translate(3.27499)"/>
</clipPath>
</defs>
</svg>
